solid OpenSCAD_Model
  facet normal -0.743144825477394 -0.6691306063588585 0
    outer loop
      vertex -12.135254915624213 -8.816778784387097 0
      vertex -10.036959095382873 -11.147172382160914 0
      vertex -12.135254915624213 -8.816778784387097 2
    endloop
  endfacet
  facet normal -0.5877852522924728 -0.8090169943749477 0
    outer loop
      vertex -10.036959095382873 -11.147172382160914 0
      vertex -7.5 -12.990381056766578 0
      vertex -7.5 -12.990381056766578 2
    endloop
  endfacet
  facet normal -0.8660254037844389 -0.4999999999999998 0
    outer loop
      vertex -12.135254915624213 -8.816778784387097 0
      vertex -12.135254915624213 -8.816778784387097 2
      vertex -13.703181864639014 -6.101049646137003 2
    endloop
  endfacet
  facet normal -0.5877852522924728 -0.8090169943749477 0
    outer loop
      vertex -10.036959095382873 -11.147172382160914 0
      vertex -7.5 -12.990381056766578 2
      vertex -10.036959095382873 -11.147172382160914 2
    endloop
  endfacet
  facet normal -0.743144825477394 -0.6691306063588585 0
    outer loop
      vertex -10.036959095382873 -11.147172382160914 0
      vertex -10.036959095382873 -11.147172382160914 2
      vertex -12.135254915624213 -8.816778784387097 2
    endloop
  endfacet
  facet normal -0.8660254037844389 -0.4999999999999998 0
    outer loop
      vertex -12.135254915624213 -8.816778784387097 0
      vertex -13.703181864639014 -6.101049646137003 2
      vertex -13.703181864639014 -6.101049646137003 0
    endloop
  endfacet
  facet normal -0.9510565162951535 -0.3090169943749476 0
    outer loop
      vertex -13.703181864639014 -6.101049646137003 0
      vertex -14.672214011007085 -3.1186753622663903 2
      vertex -14.672214011007085 -3.1186753622663903 0
    endloop
  endfacet
  facet normal 0 0 -1
    outer loop
      vertex -13.703181864639014 -6.101049646137003 0
      vertex -14.672214011007085 -3.1186753622663903 0
      vertex -13.703181864639014 6.101049646137003 0
    endloop
  endfacet
  facet normal 0 0 -1
    outer loop
      vertex -12.135254915624213 -8.816778784387097 0
      vertex -13.703181864639014 -6.101049646137003 0
      vertex -12.135254915624213 8.816778784387097 0
    endloop
  endfacet
  facet normal -0.9945218953682735 -0.10452846326765323 0
    outer loop
      vertex -14.672214011007085 -3.1186753622663903 0
      vertex -15 0 2
      vertex -15 0 0
    endloop
  endfacet
  facet normal 0 0 -1
    outer loop
      vertex -12.135254915624213 -8.816778784387097 0
      vertex -10.036959095382873 11.147172382160914 0
      vertex -10.036959095382873 -11.147172382160914 0
    endloop
  endfacet
  facet normal 0 0 -1
    outer loop
      vertex -10.036959095382873 -11.147172382160914 0
      vertex -7.5 12.990381056766578 0
      vertex -7.5 -12.990381056766578 0
    endloop
  endfacet
  facet normal -0.9510565162951535 -0.3090169943749476 0
    outer loop
      vertex -13.703181864639014 -6.101049646137003 0
      vertex -13.703181864639014 -6.101049646137003 2
      vertex -14.672214011007085 -3.1186753622663903 2
    endloop
  endfacet
  facet normal -0.9945218953682735 -0.10452846326765323 0
    outer loop
      vertex -14.672214011007085 -3.1186753622663903 0
      vertex -14.672214011007085 -3.1186753622663903 2
      vertex -15 0 2
    endloop
  endfacet
  facet normal -0.4067366430758003 -0.9135454576426009 0
    outer loop
      vertex -7.5 -12.990381056766578 0
      vertex -4.635254915624211 -14.265847744427303 0
      vertex -4.635254915624211 -14.265847744427303 2
    endloop
  endfacet
  facet normal -0.20791169081775956 -0.9781476007338056 0
    outer loop
      vertex -4.635254915624211 -14.265847744427303 0
      vertex -1.567926949014802 -14.9178284305241 0
      vertex -1.567926949014802 -14.9178284305241 2
    endloop
  endfacet
  facet normal 0 0 -1
    outer loop
      vertex -4.635254915624211 -14.265847744427303 0
      vertex -0.44504186791262795 -1.9498558243636475 0
      vertex -1.567926949014802 -14.9178284305241 0
    endloop
  endfacet
  facet normal -0.4067366430758003 -0.9135454576426009 0
    outer loop
      vertex -7.5 -12.990381056766578 0
      vertex -4.635254915624211 -14.265847744427303 2
      vertex -7.5 -12.990381056766578 2
    endloop
  endfacet
  facet normal -0.20791169081775956 -0.9781476007338056 0
    outer loop
      vertex -4.635254915624211 -14.265847744427303 0
      vertex -1.567926949014802 -14.9178284305241 2
      vertex -4.635254915624211 -14.265847744427303 2
    endloop
  endfacet
  facet normal 0 -1 0
    outer loop
      vertex -1.567926949014802 -14.9178284305241 0
      vertex 1.567926949014802 -14.9178284305241 2
      vertex -1.567926949014802 -14.9178284305241 2
    endloop
  endfacet
  facet normal 0 0 -1
    outer loop
      vertex -7.5 -12.990381056766578 0
      vertex -4.635254915624211 14.265847744427303 0
      vertex -4.635254915624211 -14.265847744427303 0
    endloop
  endfacet
  facet normal 0 0 -1
    outer loop
      vertex -4.635254915624211 -14.265847744427303 0
      vertex -1.801937735804838 -0.8677674782351165 0
      vertex -0.44504186791262795 -1.9498558243636475 0
    endloop
  endfacet
  facet normal 0 0 -1
    outer loop
      vertex -4.635254915624211 -14.265847744427303 0
      vertex -1.801937735804838 0.8677674782351165 0
      vertex -1.801937735804838 -0.8677674782351165 0
    endloop
  endfacet
  facet normal 0 0 -1
    outer loop
      vertex -1.567926949014802 -14.9178284305241 0
      vertex -0.44504186791262795 -1.9498558243636475 0
      vertex 1.2469796037174667 -1.5636629649360598 0
    endloop
  endfacet
  facet normal 0 0 1
    outer loop
      vertex -13.703181864639014 -6.101049646137003 2
      vertex -14.672214011007085 3.1186753622663903 2
      vertex -14.672214011007085 -3.1186753622663903 2
    endloop
  endfacet
  facet normal 0 0 1
    outer loop
      vertex -12.135254915624213 -8.816778784387097 2
      vertex -13.703181864639014 6.101049646137003 2
      vertex -13.703181864639014 -6.101049646137003 2
    endloop
  endfacet
  facet normal 0 0 1
    outer loop
      vertex -12.135254915624213 -8.816778784387097 2
      vertex -10.036959095382873 -11.147172382160914 2
      vertex -12.135254915624213 8.816778784387097 2
    endloop
  endfacet
  facet normal 0 0 1
    outer loop
      vertex -10.036959095382873 -11.147172382160914 2
      vertex -7.5 -12.990381056766578 2
      vertex -10.036959095382873 11.147172382160914 2
    endloop
  endfacet
  facet normal 0 0 1
    outer loop
      vertex -1.567926949014802 -14.9178284305241 2
      vertex 1.567926949014802 -14.9178284305241 2
      vertex -0.44504186791262795 -1.9498558243636475 2
    endloop
  endfacet
  facet normal 0 0 1
    outer loop
      vertex -7.5 -12.990381056766578 2
      vertex -4.635254915624211 -14.265847744427303 2
      vertex -7.5 12.990381056766578 2
    endloop
  endfacet
  facet normal 0 0 1
    outer loop
      vertex -4.635254915624211 -14.265847744427303 2
      vertex -1.567926949014802 -14.9178284305241 2
      vertex -4.635254915624211 14.265847744427303 2
    endloop
  endfacet
  facet normal 0 0 1
    outer loop
      vertex -1.567926949014802 -14.9178284305241 2
      vertex -0.44504186791262795 -1.9498558243636475 2
      vertex -1.801937735804838 -0.8677674782351165 2
    endloop
  endfacet
  facet normal 0 0 1
    outer loop
      vertex -1.567926949014802 -14.9178284305241 2
      vertex -1.801937735804838 -0.8677674782351165 2
      vertex -4.635254915624211 14.265847744427303 2
    endloop
  endfacet
  facet normal 0 0 -1
    outer loop
      vertex -14.672214011007085 -3.1186753622663903 0
      vertex -15 0 0
      vertex -14.672214011007085 3.1186753622663903 0
    endloop
  endfacet
  facet normal 0 0 -1
    outer loop
      vertex -14.672214011007085 -3.1186753622663903 0
      vertex -14.672214011007085 3.1186753622663903 0
      vertex -13.703181864639014 6.101049646137003 0
    endloop
  endfacet
  facet normal 0 0 -1
    outer loop
      vertex -13.703181864639014 -6.101049646137003 0
      vertex -13.703181864639014 6.101049646137003 0
      vertex -12.135254915624213 8.816778784387097 0
    endloop
  endfacet
  facet normal 0 0 -1
    outer loop
      vertex -12.135254915624213 -8.816778784387097 0
      vertex -12.135254915624213 8.816778784387097 0
      vertex -10.036959095382873 11.147172382160914 0
    endloop
  endfacet
  facet normal -0.9945218953682735 0.10452846326765323 0
    outer loop
      vertex -15 0 0
      vertex -14.672214011007085 3.1186753622663903 2
      vertex -14.672214011007085 3.1186753622663903 0
    endloop
  endfacet
  facet normal -0.9510565162951535 0.3090169943749476 0
    outer loop
      vertex -14.672214011007085 3.1186753622663903 0
      vertex -13.703181864639014 6.101049646137003 2
      vertex -13.703181864639014 6.101049646137003 0
    endloop
  endfacet
  facet normal 0 0 -1
    outer loop
      vertex -10.036959095382873 -11.147172382160914 0
      vertex -10.036959095382873 11.147172382160914 0
      vertex -7.5 12.990381056766578 0
    endloop
  endfacet
  facet normal -0.9945218953682735 0.10452846326765323 0
    outer loop
      vertex -15 0 0
      vertex -15 0 2
      vertex -14.672214011007085 3.1186753622663903 2
    endloop
  endfacet
  facet normal -0.9510565162951535 0.3090169943749476 0
    outer loop
      vertex -14.672214011007085 3.1186753622663903 0
      vertex -14.672214011007085 3.1186753622663903 2
      vertex -13.703181864639014 6.101049646137003 2
    endloop
  endfacet
  facet normal -0.8660254037844389 0.4999999999999998 0
    outer loop
      vertex -13.703181864639014 6.101049646137003 0
      vertex -13.703181864639014 6.101049646137003 2
      vertex -12.135254915624213 8.816778784387097 2
    endloop
  endfacet
  facet normal -0.8660254037844389 0.4999999999999998 0
    outer loop
      vertex -13.703181864639014 6.101049646137003 0
      vertex -12.135254915624213 8.816778784387097 2
      vertex -12.135254915624213 8.816778784387097 0
    endloop
  endfacet
  facet normal -0.743144825477394 0.6691306063588585 0
    outer loop
      vertex -12.135254915624213 8.816778784387097 0
      vertex -10.036959095382873 11.147172382160914 2
      vertex -10.036959095382873 11.147172382160914 0
    endloop
  endfacet
  facet normal -0.5877852522924728 0.8090169943749477 0
    outer loop
      vertex -10.036959095382873 11.147172382160914 0
      vertex -10.036959095382873 11.147172382160914 2
      vertex -7.5 12.990381056766578 0
    endloop
  endfacet
  facet normal -0.743144825477394 0.6691306063588585 0
    outer loop
      vertex -12.135254915624213 8.816778784387097 0
      vertex -12.135254915624213 8.816778784387097 2
      vertex -10.036959095382873 11.147172382160914 2
    endloop
  endfacet
  facet normal -0.5877852522924728 0.8090169943749477 0
    outer loop
      vertex -7.5 12.990381056766578 0
      vertex -10.036959095382873 11.147172382160914 2
      vertex -7.5 12.990381056766578 2
    endloop
  endfacet
  facet normal 0 0 -1
    outer loop
      vertex -7.5 -12.990381056766578 0
      vertex -7.5 12.990381056766578 0
      vertex -4.635254915624211 14.265847744427303 0
    endloop
  endfacet
  facet normal 0 0 -1
    outer loop
      vertex -4.635254915624211 -14.265847744427303 0
      vertex -1.567926949014802 14.9178284305241 0
      vertex -1.801937735804838 0.8677674782351165 0
    endloop
  endfacet
  facet normal 0 0 -1
    outer loop
      vertex -4.635254915624211 -14.265847744427303 0
      vertex -4.635254915624211 14.265847744427303 0
      vertex -1.567926949014802 14.9178284305241 0
    endloop
  endfacet
  facet normal 0 0 -1
    outer loop
      vertex -1.567926949014802 14.9178284305241 0
      vertex -0.44504186791262895 1.9498558243636472 0
      vertex -1.801937735804838 0.8677674782351165 0
    endloop
  endfacet
  facet normal -0.4067366430758003 0.9135454576426009 0
    outer loop
      vertex -7.5 12.990381056766578 0
      vertex -7.5 12.990381056766578 2
      vertex -4.635254915624211 14.265847744427303 0
    endloop
  endfacet
  facet normal 0 0 -1
    outer loop
      vertex -1.567926949014802 14.9178284305241 0
      vertex 1.567926949014802 14.9178284305241 0
      vertex -0.44504186791262895 1.9498558243636472 0
    endloop
  endfacet
  facet normal -0.20791169081775956 0.9781476007338056 0
    outer loop
      vertex -4.635254915624211 14.265847744427303 0
      vertex -4.635254915624211 14.265847744427303 2
      vertex -1.567926949014802 14.9178284305241 0
    endloop
  endfacet
  facet normal 0 1 0
    outer loop
      vertex -1.567926949014802 14.9178284305241 0
      vertex -1.567926949014802 14.9178284305241 2
      vertex 1.567926949014802 14.9178284305241 0
    endloop
  endfacet
  facet normal -0.4067366430758003 0.9135454576426009 0
    outer loop
      vertex -4.635254915624211 14.265847744427303 0
      vertex -7.5 12.990381056766578 2
      vertex -4.635254915624211 14.265847744427303 2
    endloop
  endfacet
  facet normal -0.20791169081775956 0.9781476007338056 0
    outer loop
      vertex -1.567926949014802 14.9178284305241 0
      vertex -4.635254915624211 14.265847744427303 2
      vertex -1.567926949014802 14.9178284305241 2
    endloop
  endfacet
  facet normal 0 0 1
    outer loop
      vertex -14.672214011007085 -3.1186753622663903 2
      vertex -14.672214011007085 3.1186753622663903 2
      vertex -15 0 2
    endloop
  endfacet
  facet normal 0 0 1
    outer loop
      vertex -13.703181864639014 -6.101049646137003 2
      vertex -13.703181864639014 6.101049646137003 2
      vertex -14.672214011007085 3.1186753622663903 2
    endloop
  endfacet
  facet normal 0 0 1
    outer loop
      vertex -12.135254915624213 -8.816778784387097 2
      vertex -12.135254915624213 8.816778784387097 2
      vertex -13.703181864639014 6.101049646137003 2
    endloop
  endfacet
  facet normal 0 0 1
    outer loop
      vertex -10.036959095382873 -11.147172382160914 2
      vertex -10.036959095382873 11.147172382160914 2
      vertex -12.135254915624213 8.816778784387097 2
    endloop
  endfacet
  facet normal 0 0 1
    outer loop
      vertex -7.5 -12.990381056766578 2
      vertex -7.5 12.990381056766578 2
      vertex -10.036959095382873 11.147172382160914 2
    endloop
  endfacet
  facet normal 0 0 1
    outer loop
      vertex -4.635254915624211 -14.265847744427303 2
      vertex -4.635254915624211 14.265847744427303 2
      vertex -7.5 12.990381056766578 2
    endloop
  endfacet
  facet normal 0 0 1
    outer loop
      vertex -4.635254915624211 14.265847744427303 2
      vertex -1.801937735804838 -0.8677674782351165 2
      vertex -1.801937735804838 0.8677674782351165 2
    endloop
  endfacet
  facet normal 0 0 1
    outer loop
      vertex -4.635254915624211 14.265847744427303 2
      vertex -1.801937735804838 0.8677674782351165 2
      vertex -0.44504186791262895 1.9498558243636472 2
    endloop
  endfacet
  facet normal 0 0 1
    outer loop
      vertex -1.567926949014802 14.9178284305241 2
      vertex -0.44504186791262895 1.9498558243636472 2
      vertex 1.246979603717467 1.5636629649360596 2
    endloop
  endfacet
  facet normal 0 0 1
    outer loop
      vertex -4.635254915624211 14.265847744427303 2
      vertex -0.44504186791262895 1.9498558243636472 2
      vertex -1.567926949014802 14.9178284305241 2
    endloop
  endfacet
  facet normal 0 -1 0
    outer loop
      vertex -1.567926949014802 -14.9178284305241 0
      vertex 1.567926949014802 -14.9178284305241 0
      vertex 1.567926949014802 -14.9178284305241 2
    endloop
  endfacet
  facet normal 0.20791169081775956 -0.9781476007338056 0
    outer loop
      vertex 1.567926949014802 -14.9178284305241 0
      vertex 4.635254915624211 -14.265847744427303 0
      vertex 4.635254915624211 -14.265847744427303 2
    endloop
  endfacet
  facet normal 0 0 -1
    outer loop
      vertex -1.567926949014802 -14.9178284305241 0
      vertex 1.2469796037174667 -1.5636629649360598 0
      vertex 1.567926949014802 -14.9178284305241 0
    endloop
  endfacet
  facet normal 0.4067366430758003 -0.9135454576426009 0
    outer loop
      vertex 4.635254915624211 -14.265847744427303 0
      vertex 7.5 -12.990381056766578 0
      vertex 7.5 -12.990381056766578 2
    endloop
  endfacet
  facet normal 0.20791169081775956 -0.9781476007338056 0
    outer loop
      vertex 1.567926949014802 -14.9178284305241 0
      vertex 4.635254915624211 -14.265847744427303 2
      vertex 1.567926949014802 -14.9178284305241 2
    endloop
  endfacet
  facet normal 0.4067366430758003 -0.9135454576426009 0
    outer loop
      vertex 4.635254915624211 -14.265847744427303 0
      vertex 7.5 -12.990381056766578 2
      vertex 4.635254915624211 -14.265847744427303 2
    endloop
  endfacet
  facet normal 0 0 -1
    outer loop
      vertex 1.567926949014802 -14.9178284305241 0
      vertex 1.2469796037174667 -1.5636629649360598 0
      vertex 2 0 0
    endloop
  endfacet
  facet normal 0 0 -1
    outer loop
      vertex 1.567926949014802 -14.9178284305241 0
      vertex 4.635254915624211 14.265847744427303 0
      vertex 4.635254915624211 -14.265847744427303 0
    endloop
  endfacet
  facet normal 0 0 -1
    outer loop
      vertex 1.567926949014802 -14.9178284305241 0
      vertex 2 0 0
      vertex 4.635254915624211 14.265847744427303 0
    endloop
  endfacet
  facet normal 0 0 -1
    outer loop
      vertex 4.635254915624211 -14.265847744427303 0
      vertex 7.5 12.990381056766578 0
      vertex 7.5 -12.990381056766578 0
    endloop
  endfacet
  facet normal 0.5877852522924728 -0.8090169943749477 0
    outer loop
      vertex 7.5 -12.990381056766578 0
      vertex 10.036959095382873 -11.147172382160914 0
      vertex 10.036959095382873 -11.147172382160914 2
    endloop
  endfacet
  facet normal 0.743144825477394 -0.6691306063588585 0
    outer loop
      vertex 10.036959095382873 -11.147172382160914 0
      vertex 12.135254915624213 -8.816778784387097 0
      vertex 10.036959095382873 -11.147172382160914 2
    endloop
  endfacet
  facet normal 0.8660254037844389 -0.4999999999999998 0
    outer loop
      vertex 12.135254915624213 -8.816778784387097 0
      vertex 13.703181864639014 -6.101049646137003 0
      vertex 12.135254915624213 -8.816778784387097 2
    endloop
  endfacet
  facet normal 0.5877852522924728 -0.8090169943749477 0
    outer loop
      vertex 7.5 -12.990381056766578 0
      vertex 10.036959095382873 -11.147172382160914 2
      vertex 7.5 -12.990381056766578 2
    endloop
  endfacet
  facet normal 0.743144825477394 -0.6691306063588585 0
    outer loop
      vertex 12.135254915624213 -8.816778784387097 0
      vertex 12.135254915624213 -8.816778784387097 2
      vertex 10.036959095382873 -11.147172382160914 2
    endloop
  endfacet
  facet normal 0 0 -1
    outer loop
      vertex 7.5 -12.990381056766578 0
      vertex 10.036959095382873 11.147172382160914 0
      vertex 10.036959095382873 -11.147172382160914 0
    endloop
  endfacet
  facet normal 0.9510565162951535 -0.3090169943749476 0
    outer loop
      vertex 13.703181864639014 -6.101049646137003 0
      vertex 14.672214011007085 -3.1186753622663903 0
      vertex 13.703181864639014 -6.101049646137003 2
    endloop
  endfacet
  facet normal 0 0 -1
    outer loop
      vertex 10.036959095382873 -11.147172382160914 0
      vertex 12.135254915624213 8.816778784387097 0
      vertex 12.135254915624213 -8.816778784387097 0
    endloop
  endfacet
  facet normal 0 0 -1
    outer loop
      vertex 12.135254915624213 -8.816778784387097 0
      vertex 13.703181864639014 6.101049646137003 0
      vertex 13.703181864639014 -6.101049646137003 0
    endloop
  endfacet
  facet normal 0 0 -1
    outer loop
      vertex 13.703181864639014 -6.101049646137003 0
      vertex 14.672214011007085 3.1186753622663903 0
      vertex 14.672214011007085 -3.1186753622663903 0
    endloop
  endfacet
  facet normal 0.9945218953682735 -0.10452846326765323 0
    outer loop
      vertex 14.672214011007085 -3.1186753622663903 0
      vertex 15 0 0
      vertex 14.672214011007085 -3.1186753622663903 2
    endloop
  endfacet
  facet normal 0.8660254037844389 -0.4999999999999998 0
    outer loop
      vertex 13.703181864639014 -6.101049646137003 0
      vertex 13.703181864639014 -6.101049646137003 2
      vertex 12.135254915624213 -8.816778784387097 2
    endloop
  endfacet
  facet normal 0.9510565162951535 -0.3090169943749476 0
    outer loop
      vertex 14.672214011007085 -3.1186753622663903 0
      vertex 14.672214011007085 -3.1186753622663903 2
      vertex 13.703181864639014 -6.101049646137003 2
    endloop
  endfacet
  facet normal 0.9945218953682735 -0.10452846326765323 0
    outer loop
      vertex 14.672214011007085 -3.1186753622663903 2
      vertex 15 0 0
      vertex 15 0 2
    endloop
  endfacet
  facet normal 0 0 1
    outer loop
      vertex 1.567926949014802 -14.9178284305241 2
      vertex 4.635254915624211 -14.265847744427303 2
      vertex 1.2469796037174667 -1.5636629649360598 2
    endloop
  endfacet
  facet normal 0 0 1
    outer loop
      vertex 1.567926949014802 -14.9178284305241 2
      vertex 1.2469796037174667 -1.5636629649360598 2
      vertex -0.44504186791262795 -1.9498558243636475 2
    endloop
  endfacet
  facet normal 0 0 1
    outer loop
      vertex 4.635254915624211 -14.265847744427303 2
      vertex 2 0 2
      vertex 1.2469796037174667 -1.5636629649360598 2
    endloop
  endfacet
  facet normal 0 0 1
    outer loop
      vertex 4.635254915624211 -14.265847744427303 2
      vertex 7.5 -12.990381056766578 2
      vertex 4.635254915624211 14.265847744427303 2
    endloop
  endfacet
  facet normal 0 0 1
    outer loop
      vertex 7.5 -12.990381056766578 2
      vertex 10.036959095382873 -11.147172382160914 2
      vertex 7.5 12.990381056766578 2
    endloop
  endfacet
  facet normal 0 0 1
    outer loop
      vertex 10.036959095382873 -11.147172382160914 2
      vertex 12.135254915624213 -8.816778784387097 2
      vertex 10.036959095382873 11.147172382160914 2
    endloop
  endfacet
  facet normal 0 0 1
    outer loop
      vertex 12.135254915624213 -8.816778784387097 2
      vertex 13.703181864639014 -6.101049646137003 2
      vertex 12.135254915624213 8.816778784387097 2
    endloop
  endfacet
  facet normal 0 0 1
    outer loop
      vertex 13.703181864639014 -6.101049646137003 2
      vertex 14.672214011007085 -3.1186753622663903 2
      vertex 13.703181864639014 6.101049646137003 2
    endloop
  endfacet
  facet normal 0 0 -1
    outer loop
      vertex 1.567926949014802 14.9178284305241 0
      vertex 1.246979603717467 1.5636629649360596 0
      vertex -0.44504186791262895 1.9498558243636472 0
    endloop
  endfacet
  facet normal 0 0 -1
    outer loop
      vertex 4.635254915624211 14.265847744427303 0
      vertex 2 0 0
      vertex 1.246979603717467 1.5636629649360596 0
    endloop
  endfacet
  facet normal 0 0 -1
    outer loop
      vertex 4.635254915624211 -14.265847744427303 0
      vertex 4.635254915624211 14.265847744427303 0
      vertex 7.5 12.990381056766578 0
    endloop
  endfacet
  facet normal 0 0 -1
    outer loop
      vertex 1.567926949014802 14.9178284305241 0
      vertex 4.635254915624211 14.265847744427303 0
      vertex 1.246979603717467 1.5636629649360596 0
    endloop
  endfacet
  facet normal 0.20791169081775956 0.9781476007338056 0
    outer loop
      vertex 1.567926949014802 14.9178284305241 0
      vertex 1.567926949014802 14.9178284305241 2
      vertex 4.635254915624211 14.265847744427303 0
    endloop
  endfacet
  facet normal 0.4067366430758003 0.9135454576426009 0
    outer loop
      vertex 4.635254915624211 14.265847744427303 0
      vertex 4.635254915624211 14.265847744427303 2
      vertex 7.5 12.990381056766578 0
    endloop
  endfacet
  facet normal 0 1 0
    outer loop
      vertex -1.567926949014802 14.9178284305241 2
      vertex 1.567926949014802 14.9178284305241 2
      vertex 1.567926949014802 14.9178284305241 0
    endloop
  endfacet
  facet normal 0.20791169081775956 0.9781476007338056 0
    outer loop
      vertex 4.635254915624211 14.265847744427303 0
      vertex 1.567926949014802 14.9178284305241 2
      vertex 4.635254915624211 14.265847744427303 2
    endloop
  endfacet
  facet normal 0.4067366430758003 0.9135454576426009 0
    outer loop
      vertex 7.5 12.990381056766578 0
      vertex 4.635254915624211 14.265847744427303 2
      vertex 7.5 12.990381056766578 2
    endloop
  endfacet
  facet normal 0 0 -1
    outer loop
      vertex 7.5 -12.990381056766578 0
      vertex 7.5 12.990381056766578 0
      vertex 10.036959095382873 11.147172382160914 0
    endloop
  endfacet
  facet normal 0 0 -1
    outer loop
      vertex 10.036959095382873 -11.147172382160914 0
      vertex 10.036959095382873 11.147172382160914 0
      vertex 12.135254915624213 8.816778784387097 0
    endloop
  endfacet
  facet normal 0 0 -1
    outer loop
      vertex 12.135254915624213 -8.816778784387097 0
      vertex 12.135254915624213 8.816778784387097 0
      vertex 13.703181864639014 6.101049646137003 0
    endloop
  endfacet
  facet normal 0 0 -1
    outer loop
      vertex 13.703181864639014 -6.101049646137003 0
      vertex 13.703181864639014 6.101049646137003 0
      vertex 14.672214011007085 3.1186753622663903 0
    endloop
  endfacet
  facet normal 0 0 -1
    outer loop
      vertex 14.672214011007085 -3.1186753622663903 0
      vertex 14.672214011007085 3.1186753622663903 0
      vertex 15 0 0
    endloop
  endfacet
  facet normal 0.9945218953682735 0.10452846326765323 0
    outer loop
      vertex 15 0 0
      vertex 14.672214011007085 3.1186753622663903 0
      vertex 15 0 2
    endloop
  endfacet
  facet normal 0.9510565162951535 0.3090169943749476 0
    outer loop
      vertex 14.672214011007085 3.1186753622663903 0
      vertex 13.703181864639014 6.101049646137003 0
      vertex 14.672214011007085 3.1186753622663903 2
    endloop
  endfacet
  facet normal 0.8660254037844389 0.4999999999999998 0
    outer loop
      vertex 13.703181864639014 6.101049646137003 0
      vertex 12.135254915624213 8.816778784387097 0
      vertex 13.703181864639014 6.101049646137003 2
    endloop
  endfacet
  facet normal 0.9945218953682735 0.10452846326765323 0
    outer loop
      vertex 14.672214011007085 3.1186753622663903 0
      vertex 14.672214011007085 3.1186753622663903 2
      vertex 15 0 2
    endloop
  endfacet
  facet normal 0.9510565162951535 0.3090169943749476 0
    outer loop
      vertex 13.703181864639014 6.101049646137003 0
      vertex 13.703181864639014 6.101049646137003 2
      vertex 14.672214011007085 3.1186753622663903 2
    endloop
  endfacet
  facet normal 0.5877852522924728 0.8090169943749477 0
    outer loop
      vertex 10.036959095382873 11.147172382160914 0
      vertex 7.5 12.990381056766578 0
      vertex 7.5 12.990381056766578 2
    endloop
  endfacet
  facet normal 0.743144825477394 0.6691306063588585 0
    outer loop
      vertex 10.036959095382873 11.147172382160914 0
      vertex 12.135254915624213 8.816778784387097 2
      vertex 12.135254915624213 8.816778784387097 0
    endloop
  endfacet
  facet normal 0.743144825477394 0.6691306063588585 0
    outer loop
      vertex 10.036959095382873 11.147172382160914 0
      vertex 10.036959095382873 11.147172382160914 2
      vertex 12.135254915624213 8.816778784387097 2
    endloop
  endfacet
  facet normal 0.5877852522924728 0.8090169943749477 0
    outer loop
      vertex 10.036959095382873 11.147172382160914 0
      vertex 7.5 12.990381056766578 2
      vertex 10.036959095382873 11.147172382160914 2
    endloop
  endfacet
  facet normal 0.8660254037844389 0.4999999999999998 0
    outer loop
      vertex 12.135254915624213 8.816778784387097 0
      vertex 12.135254915624213 8.816778784387097 2
      vertex 13.703181864639014 6.101049646137003 2
    endloop
  endfacet
  facet normal 0 0 1
    outer loop
      vertex 4.635254915624211 -14.265847744427303 2
      vertex 1.567926949014802 14.9178284305241 2
      vertex 2 0 2
    endloop
  endfacet
  facet normal 0 0 1
    outer loop
      vertex 1.567926949014802 14.9178284305241 2
      vertex 1.246979603717467 1.5636629649360596 2
      vertex 2 0 2
    endloop
  endfacet
  facet normal 0 0 1
    outer loop
      vertex 4.635254915624211 -14.265847744427303 2
      vertex 4.635254915624211 14.265847744427303 2
      vertex 1.567926949014802 14.9178284305241 2
    endloop
  endfacet
  facet normal 0 0 1
    outer loop
      vertex 7.5 -12.990381056766578 2
      vertex 7.5 12.990381056766578 2
      vertex 4.635254915624211 14.265847744427303 2
    endloop
  endfacet
  facet normal 0 0 1
    outer loop
      vertex -1.567926949014802 14.9178284305241 2
      vertex 1.246979603717467 1.5636629649360596 2
      vertex 1.567926949014802 14.9178284305241 2
    endloop
  endfacet
  facet normal 0 0 1
    outer loop
      vertex 10.036959095382873 -11.147172382160914 2
      vertex 10.036959095382873 11.147172382160914 2
      vertex 7.5 12.990381056766578 2
    endloop
  endfacet
  facet normal 0 0 1
    outer loop
      vertex 12.135254915624213 -8.816778784387097 2
      vertex 12.135254915624213 8.816778784387097 2
      vertex 10.036959095382873 11.147172382160914 2
    endloop
  endfacet
  facet normal 0 0 1
    outer loop
      vertex 14.672214011007085 -3.1186753622663903 2
      vertex 15 0 2
      vertex 14.672214011007085 3.1186753622663903 2
    endloop
  endfacet
  facet normal 0 0 1
    outer loop
      vertex 13.703181864639014 -6.101049646137003 2
      vertex 13.703181864639014 6.101049646137003 2
      vertex 12.135254915624213 8.816778784387097 2
    endloop
  endfacet
  facet normal 0 0 1
    outer loop
      vertex 14.672214011007085 -3.1186753622663903 2
      vertex 14.672214011007085 3.1186753622663903 2
      vertex 13.703181864639014 6.101049646137003 2
    endloop
  endfacet
  facet normal 0 0 -1
    outer loop
      vertex -12.13525491207838 -8.816778786480427 2.01
      vertex -7.5 -12.990381054580212 2.01
      vertex -10.03695909678936 -11.147172383964062 2.01
    endloop
  endfacet
  facet normal 0 0 -1
    outer loop
      vertex -12.13525491207838 -8.816778786480427 2.01
      vertex -13.703181862831116 -6.101049646735191 2.01
      vertex -7.5 -12.990381054580212 2.01
    endloop
  endfacet
  facet normal 0 0 -1
    outer loop
      vertex -13.703181862831116 -6.101049646735191 2.01
      vertex -14.67221400886774 -3.118675358593464 2.01
      vertex -4.635254912078381 -14.265847742557526 2.01
    endloop
  endfacet
  facet normal 0 0 -1
    outer loop
      vertex -13.703181862831116 -6.101049646735191 2.01
      vertex -4.635254912078381 -14.265847742557526 2.01
      vertex -7.5 -12.990381054580212 2.01
    endloop
  endfacet
  facet normal -0.7431448262212648 -0.6691306055327062 0
    outer loop
      vertex -12.13525491207838 -8.816778786480427 2.01
      vertex -10.03695909678936 -11.147172383964062 2.01
      vertex -12.13525491207838 -8.816778786480427 3.01
    endloop
  endfacet
  facet normal -0.8660254036636544 -0.5000000002092044 0
    outer loop
      vertex -12.13525491207838 -8.816778786480427 2.01
      vertex -12.13525491207838 -8.816778786480427 3.01
      vertex -13.703181862831116 -6.101049646735191 3.01
    endloop
  endfacet
  facet normal -0.5877852512465072 -0.8090169951348862 0
    outer loop
      vertex -10.03695909678936 -11.147172383964062 2.01
      vertex -7.5 -12.990381054580212 2.01
      vertex -10.03695909678936 -11.147172383964062 3.01
    endloop
  endfacet
  facet normal -0.5877852512465072 -0.8090169951348862 0
    outer loop
      vertex -10.03695909678936 -11.147172383964062 3.01
      vertex -7.5 -12.990381054580212 2.01
      vertex -7.5 -12.990381054580212 3.01
    endloop
  endfacet
  facet normal -0.7431448262212648 -0.6691306055327062 0
    outer loop
      vertex -10.03695909678936 -11.147172383964062 2.01
      vertex -10.03695909678936 -11.147172383964062 3.01
      vertex -12.13525491207838 -8.816778786480427 3.01
    endloop
  endfacet
  facet normal 0 0 1
    outer loop
      vertex -12.13525491207838 -8.816778786480427 3.01
      vertex -10.03695909678936 -11.147172383964062 3.01
      vertex -7.5 -12.990381054580212 3.01
    endloop
  endfacet
  facet normal 0 0 1
    outer loop
      vertex -12.13525491207838 -8.816778786480427 3.01
      vertex -7.5 -12.990381054580212 3.01
      vertex -13.703181862831116 -6.101049646735191 3.01
    endloop
  endfacet
  facet normal 0 0 1
    outer loop
      vertex -13.703181862831116 -6.101049646735191 3.01
      vertex -4.635254912078381 -14.265847742557526 3.01
      vertex -14.67221400886774 -3.118675358593464 3.01
    endloop
  endfacet
  facet normal 0 0 1
    outer loop
      vertex -13.703181862831116 -6.101049646735191 3.01
      vertex -7.5 -12.990381054580212 3.01
      vertex -4.635254912078381 -14.265847742557526 3.01
    endloop
  endfacet
  facet normal 0 0 -1
    outer loop
      vertex -14.67221400886774 -3.118675358593464 2.01
      vertex -15 0 2.01
      vertex -1.5679269507527351 -14.917828433215618 2.01
    endloop
  endfacet
  facet normal -0.8660254036636544 -0.5000000002092044 0
    outer loop
      vertex -12.13525491207838 -8.816778786480427 2.01
      vertex -13.703181862831116 -6.101049646735191 3.01
      vertex -13.703181862831116 -6.101049646735191 2.01
    endloop
  endfacet
  facet normal -0.9510565164562788 -0.3090169938790554 0
    outer loop
      vertex -13.703181862831116 -6.101049646735191 2.01
      vertex -14.67221400886774 -3.118675358593464 3.01
      vertex -14.67221400886774 -3.118675358593464 2.01
    endloop
  endfacet
  facet normal -0.9510565164562788 -0.3090169938790554 0
    outer loop
      vertex -13.703181862831116 -6.101049646735191 2.01
      vertex -13.703181862831116 -6.101049646735191 3.01
      vertex -14.67221400886774 -3.118675358593464 3.01
    endloop
  endfacet
  facet normal -0.994521895284555 -0.10452846406418012 0
    outer loop
      vertex -14.67221400886774 -3.118675358593464 2.01
      vertex -15 0 3.01
      vertex -15 0 2.01
    endloop
  endfacet
  facet normal -0.994521895284555 -0.10452846406418012 0
    outer loop
      vertex -14.67221400886774 -3.118675358593464 2.01
      vertex -14.67221400886774 -3.118675358593464 3.01
      vertex -15 0 3.01
    endloop
  endfacet
  facet normal 0 0 1
    outer loop
      vertex -14.67221400886774 -3.118675358593464 3.01
      vertex -1.5679269507527351 -14.917828433215618 3.01
      vertex -15 0 3.01
    endloop
  endfacet
  facet normal 0 0 -1
    outer loop
      vertex -14.67221400886774 -3.118675358593464 2.01
      vertex -1.5679269507527351 -14.917828433215618 2.01
      vertex -4.635254912078381 -14.265847742557526 2.01
    endloop
  endfacet
  facet normal 0 0 -1
    outer loop
      vertex -1.5679269507527351 -14.917828433215618 2.01
      vertex -15 0 2.01
      vertex 0 -14.917828433215618 2.01
    endloop
  endfacet
  facet normal -0.4067366427399051 -0.9135454577921509 0
    outer loop
      vertex -7.5 -12.990381054580212 2.01
      vertex -4.635254912078381 -14.265847742557526 2.01
      vertex -7.5 -12.990381054580212 3.01
    endloop
  endfacet
  facet normal -0.4067366427399051 -0.9135454577921509 0
    outer loop
      vertex -4.635254912078381 -14.265847742557526 2.01
      vertex -4.635254912078381 -14.265847742557526 3.01
      vertex -7.5 -12.990381054580212 3.01
    endloop
  endfacet
  facet normal 0 0 1
    outer loop
      vertex -14.67221400886774 -3.118675358593464 3.01
      vertex -4.635254912078381 -14.265847742557526 3.01
      vertex -1.5679269507527351 -14.917828433215618 3.01
    endloop
  endfacet
  facet normal 0 0 1
    outer loop
      vertex -1.5679269507527351 -14.917828433215618 3.01
      vertex 0 -14.917828433215618 3.01
      vertex -15 0 3.01
    endloop
  endfacet
  facet normal -0.20791169255211112 -0.9781476003651577 0
    outer loop
      vertex -4.635254912078381 -14.265847742557526 2.01
      vertex -1.5679269507527351 -14.917828433215618 2.01
      vertex -4.635254912078381 -14.265847742557526 3.01
    endloop
  endfacet
  facet normal 0 -1 0
    outer loop
      vertex -1.5679269507527351 -14.917828433215618 2.01
      vertex 0 -14.917828433215618 2.01
      vertex -1.5679269507527351 -14.917828433215618 3.01
    endloop
  endfacet
  facet normal -0.20791169255211112 -0.9781476003651577 0
    outer loop
      vertex -1.5679269507527351 -14.917828433215618 2.01
      vertex -1.5679269507527351 -14.917828433215618 3.01
      vertex -4.635254912078381 -14.265847742557526 3.01
    endloop
  endfacet
  facet normal 0 -1 0
    outer loop
      vertex -1.5679269507527351 -14.917828433215618 3.01
      vertex 0 -14.917828433215618 2.01
      vertex 0 -14.917828433215618 3.01
    endloop
  endfacet
  facet normal 0 0 -1
    outer loop
      vertex -15 0 2.01
      vertex -1.801937735804838 -0.8677674782351165 2.01
      vertex 0 -14.917828433215618 2.01
    endloop
  endfacet
  facet normal 0 0 -1
    outer loop
      vertex -15 0 2.01
      vertex -1.801937735804838 0 2.01
      vertex -1.801937735804838 -0.8677674782351165 2.01
    endloop
  endfacet
  facet normal 0 0 -1
    outer loop
      vertex 0 -14.917828433215618 2.01
      vertex -1.801937735804838 -0.8677674782351165 2.01
      vertex -0.44504186791262795 -1.9498558243636475 2.01
    endloop
  endfacet
  facet normal 0 0 -1
    outer loop
      vertex 0 -14.917828433215618 2.01
      vertex -0.44504186791262795 -1.9498558243636475 2.01
      vertex 0 -1.848277922182187 2.01
    endloop
  endfacet
  facet normal 0 0 1
    outer loop
      vertex -15 0 3.01
      vertex 0 -14.917828433215618 3.01
      vertex -1.801937735804838 -0.8677674782351165 3.01
    endloop
  endfacet
  facet normal 0 0 1
    outer loop
      vertex -15 0 3.01
      vertex -1.801937735804838 -0.8677674782351165 3.01
      vertex -1.801937735804838 0 3.01
    endloop
  endfacet
  facet normal 0 0 1
    outer loop
      vertex 0 -14.917828433215618 3.01
      vertex -0.44504186791262795 -1.9498558243636475 3.01
      vertex -1.801937735804838 -0.8677674782351165 3.01
    endloop
  endfacet
  facet normal 0 0 1
    outer loop
      vertex 0 -14.917828433215618 3.01
      vertex 0 -1.848277922182187 3.01
      vertex -0.44504186791262795 -1.9498558243636475 3.01
    endloop
  endfacet
  facet normal 0 1 0
    outer loop
      vertex -15 0 2.01
      vertex -15 0 3.01
      vertex -1.801937735804838 0 2.01
    endloop
  endfacet
  facet normal 0 1 0
    outer loop
      vertex -15 0 3.01
      vertex -1.801937735804838 0 3.01
      vertex -1.801937735804838 0 2.01
    endloop
  endfacet
  facet normal 1 0 0
    outer loop
      vertex 0 -14.917828433215618 2.01
      vertex 0 -1.848277922182187 3.01
      vertex 0 -14.917828433215618 3.01
    endloop
  endfacet
  facet normal 1 0 0
    outer loop
      vertex 0 -14.917828433215618 2.01
      vertex 0 -1.848277922182187 2.01
      vertex 0 -1.848277922182187 3.01
    endloop
  endfacet
  facet normal 0 0 -1
    outer loop
      vertex 0 14.917828433215618 2.01
      vertex 1.246979603717467 1.5636629649360596 2.01
      vertex 0 1.8482779221821866 2.01
    endloop
  endfacet
  facet normal 0 0 -1
    outer loop
      vertex 13.703181862831116 6.101049646735191 2.01
      vertex 2 0 2.01
      vertex 1.246979603717467 1.5636629649360596 2.01
    endloop
  endfacet
  facet normal -1 0 0
    outer loop
      vertex 0 14.917828433215618 2.01
      vertex 0 1.8482779221821866 2.01
      vertex 0 1.8482779221821866 3.01
    endloop
  endfacet
  facet normal 0 0 1
    outer loop
      vertex 0 14.917828433215618 3.01
      vertex 0 1.8482779221821866 3.01
      vertex 1.246979603717467 1.5636629649360596 3.01
    endloop
  endfacet
  facet normal 0 0 1
    outer loop
      vertex 12.13525491207838 8.816778786480427 3.01
      vertex 1.246979603717467 1.5636629649360596 3.01
      vertex 2 0 3.01
    endloop
  endfacet
  facet normal 0 -1 0
    outer loop
      vertex 15 0 3.01
      vertex 2 0 3.01
      vertex 2 0 2.01
    endloop
  endfacet
  facet normal 0 0 -1
    outer loop
      vertex 0 14.917828433215618 2.01
      vertex 12.13525491207838 8.816778786480427 2.01
      vertex 1.246979603717467 1.5636629649360596 2.01
    endloop
  endfacet
  facet normal 0 0 -1
    outer loop
      vertex 0 14.917828433215618 2.01
      vertex 1.5679269507527351 14.917828433215618 2.01
      vertex 10.03695909678936 11.147172383964062 2.01
    endloop
  endfacet
  facet normal 0 0 -1
    outer loop
      vertex 1.5679269507527351 14.917828433215618 2.01
      vertex 4.635254912078381 14.265847742557526 2.01
      vertex 7.5 12.990381054580212 2.01
    endloop
  endfacet
  facet normal 0 0 -1
    outer loop
      vertex 1.5679269507527351 14.917828433215618 2.01
      vertex 7.5 12.990381054580212 2.01
      vertex 10.03695909678936 11.147172383964062 2.01
    endloop
  endfacet
  facet normal 0 0 -1
    outer loop
      vertex 0 14.917828433215618 2.01
      vertex 10.03695909678936 11.147172383964062 2.01
      vertex 12.13525491207838 8.816778786480427 2.01
    endloop
  endfacet
  facet normal -1 0 0
    outer loop
      vertex 0 14.917828433215618 2.01
      vertex 0 1.8482779221821866 3.01
      vertex 0 14.917828433215618 3.01
    endloop
  endfacet
  facet normal 0 1 0
    outer loop
      vertex 0 14.917828433215618 2.01
      vertex 1.5679269507527351 14.917828433215618 3.01
      vertex 1.5679269507527351 14.917828433215618 2.01
    endloop
  endfacet
  facet normal 0.20791169255211112 0.9781476003651577 0
    outer loop
      vertex 1.5679269507527351 14.917828433215618 2.01
      vertex 4.635254912078381 14.265847742557526 3.01
      vertex 4.635254912078381 14.265847742557526 2.01
    endloop
  endfacet
  facet normal 0 1 0
    outer loop
      vertex 0 14.917828433215618 2.01
      vertex 0 14.917828433215618 3.01
      vertex 1.5679269507527351 14.917828433215618 3.01
    endloop
  endfacet
  facet normal 0.20791169255211112 0.9781476003651577 0
    outer loop
      vertex 1.5679269507527351 14.917828433215618 2.01
      vertex 1.5679269507527351 14.917828433215618 3.01
      vertex 4.635254912078381 14.265847742557526 3.01
    endloop
  endfacet
  facet normal 0 0 1
    outer loop
      vertex 0 14.917828433215618 3.01
      vertex 1.246979603717467 1.5636629649360596 3.01
      vertex 12.13525491207838 8.816778786480427 3.01
    endloop
  endfacet
  facet normal 0.4067366427399051 0.9135454577921509 0
    outer loop
      vertex 4.635254912078381 14.265847742557526 2.01
      vertex 7.5 12.990381054580212 3.01
      vertex 7.5 12.990381054580212 2.01
    endloop
  endfacet
  facet normal 0.4067366427399051 0.9135454577921509 0
    outer loop
      vertex 4.635254912078381 14.265847742557526 2.01
      vertex 4.635254912078381 14.265847742557526 3.01
      vertex 7.5 12.990381054580212 3.01
    endloop
  endfacet
  facet normal 0 0 1
    outer loop
      vertex 0 14.917828433215618 3.01
      vertex 10.03695909678936 11.147172383964062 3.01
      vertex 1.5679269507527351 14.917828433215618 3.01
    endloop
  endfacet
  facet normal 0 0 1
    outer loop
      vertex 1.5679269507527351 14.917828433215618 3.01
      vertex 7.5 12.990381054580212 3.01
      vertex 4.635254912078381 14.265847742557526 3.01
    endloop
  endfacet
  facet normal 0 0 1
    outer loop
      vertex 1.5679269507527351 14.917828433215618 3.01
      vertex 10.03695909678936 11.147172383964062 3.01
      vertex 7.5 12.990381054580212 3.01
    endloop
  endfacet
  facet normal 0 0 1
    outer loop
      vertex 0 14.917828433215618 3.01
      vertex 12.13525491207838 8.816778786480427 3.01
      vertex 10.03695909678936 11.147172383964062 3.01
    endloop
  endfacet
  facet normal 0 0 -1
    outer loop
      vertex 15 0 2.01
      vertex 2 0 2.01
      vertex 13.703181862831116 6.101049646735191 2.01
    endloop
  endfacet
  facet normal 0 0 -1
    outer loop
      vertex 13.703181862831116 6.101049646735191 2.01
      vertex 1.246979603717467 1.5636629649360596 2.01
      vertex 12.13525491207838 8.816778786480427 2.01
    endloop
  endfacet
  facet normal 0 0 -1
    outer loop
      vertex 15 0 2.01
      vertex 13.703181862831116 6.101049646735191 2.01
      vertex 14.67221400886774 3.118675358593464 2.01
    endloop
  endfacet
  facet normal 0 -1 0
    outer loop
      vertex 15 0 2.01
      vertex 15 0 3.01
      vertex 2 0 2.01
    endloop
  endfacet
  facet normal 0 0 1
    outer loop
      vertex 15 0 3.01
      vertex 13.703181862831116 6.101049646735191 3.01
      vertex 2 0 3.01
    endloop
  endfacet
  facet normal 0 0 1
    outer loop
      vertex 13.703181862831116 6.101049646735191 3.01
      vertex 12.13525491207838 8.816778786480427 3.01
      vertex 2 0 3.01
    endloop
  endfacet
  facet normal 0.994521895284555 0.10452846406418012 0
    outer loop
      vertex 15 0 2.01
      vertex 14.67221400886774 3.118675358593464 2.01
      vertex 15 0 3.01
    endloop
  endfacet
  facet normal 0.994521895284555 0.10452846406418012 0
    outer loop
      vertex 14.67221400886774 3.118675358593464 2.01
      vertex 14.67221400886774 3.118675358593464 3.01
      vertex 15 0 3.01
    endloop
  endfacet
  facet normal 0 0 1
    outer loop
      vertex 15 0 3.01
      vertex 14.67221400886774 3.118675358593464 3.01
      vertex 13.703181862831116 6.101049646735191 3.01
    endloop
  endfacet
  facet normal 0.9510565164562788 0.3090169938790554 0
    outer loop
      vertex 14.67221400886774 3.118675358593464 2.01
      vertex 13.703181862831116 6.101049646735191 2.01
      vertex 14.67221400886774 3.118675358593464 3.01
    endloop
  endfacet
  facet normal 0.8660254036636544 0.5000000002092044 0
    outer loop
      vertex 13.703181862831116 6.101049646735191 2.01
      vertex 12.13525491207838 8.816778786480427 2.01
      vertex 13.703181862831116 6.101049646735191 3.01
    endloop
  endfacet
  facet normal 0.9510565164562788 0.3090169938790554 0
    outer loop
      vertex 13.703181862831116 6.101049646735191 2.01
      vertex 13.703181862831116 6.101049646735191 3.01
      vertex 14.67221400886774 3.118675358593464 3.01
    endloop
  endfacet
  facet normal 0.7431448262212648 0.6691306055327062 0
    outer loop
      vertex 10.03695909678936 11.147172383964062 2.01
      vertex 10.03695909678936 11.147172383964062 3.01
      vertex 12.13525491207838 8.816778786480427 3.01
    endloop
  endfacet
  facet normal 0.5877852512465072 0.8090169951348862 0
    outer loop
      vertex 10.03695909678936 11.147172383964062 2.01
      vertex 7.5 12.990381054580212 2.01
      vertex 10.03695909678936 11.147172383964062 3.01
    endloop
  endfacet
  facet normal 0.5877852512465072 0.8090169951348862 0
    outer loop
      vertex 7.5 12.990381054580212 2.01
      vertex 7.5 12.990381054580212 3.01
      vertex 10.03695909678936 11.147172383964062 3.01
    endloop
  endfacet
  facet normal 0.7431448262212648 0.6691306055327062 0
    outer loop
      vertex 10.03695909678936 11.147172383964062 2.01
      vertex 12.13525491207838 8.816778786480427 3.01
      vertex 12.13525491207838 8.816778786480427 2.01
    endloop
  endfacet
  facet normal 0.8660254036636544 0.5000000002092044 0
    outer loop
      vertex 13.703181862831116 6.101049646735191 3.01
      vertex 12.13525491207838 8.816778786480427 2.01
      vertex 12.13525491207838 8.816778786480427 3.01
    endloop
  endfacet
  facet normal 0.6234898018587334 0.7818314824680299 0
    outer loop
      vertex -0.44504186791262795 -1.9498558243636475 0
      vertex -1.801937735804838 -0.8677674782351165 0
      vertex -1.801937735804838 -0.8677674782351165 2
    endloop
  endfacet
  facet normal 1 0 0
    outer loop
      vertex -1.801937735804838 -0.8677674782351165 2
      vertex -1.801937735804838 -0.8677674782351165 0
      vertex -1.801937735804838 0.8677674782351165 2
    endloop
  endfacet
  facet normal 0.6234898018587334 0.7818314824680299 0
    outer loop
      vertex -1.801937735804838 -0.8677674782351165 2
      vertex -0.44504186791262795 -1.9498558243636475 2
      vertex -0.44504186791262795 -1.9498558243636475 0
    endloop
  endfacet
  facet normal -0.22252093395631456 0.9749279121818236 0
    outer loop
      vertex -0.44504186791262795 -1.9498558243636475 2.01
      vertex -0.44504186791262795 -1.9498558243636475 3.01
      vertex 0 -1.848277922182187 2.01
    endloop
  endfacet
  facet normal 0.6234898018587334 0.7818314824680299 0
    outer loop
      vertex -0.44504186791262795 -1.9498558243636475 2.01
      vertex -1.801937735804838 -0.8677674782351165 2.01
      vertex -1.801937735804838 -0.8677674782351165 3.01
    endloop
  endfacet
  facet normal 1 0 0
    outer loop
      vertex -1.801937735804838 0 2.01
      vertex -1.801937735804838 0 3.01
      vertex -1.801937735804838 -0.8677674782351165 2.01
    endloop
  endfacet
  facet normal -0.22252093395631456 0.9749279121818236 0
    outer loop
      vertex 0 -1.848277922182187 3.01
      vertex 0 -1.848277922182187 2.01
      vertex -0.44504186791262795 -1.9498558243636475 3.01
    endloop
  endfacet
  facet normal 1 0 0
    outer loop
      vertex -1.801937735804838 -0.8677674782351165 3.01
      vertex -1.801937735804838 -0.8677674782351165 2.01
      vertex -1.801937735804838 0 3.01
    endloop
  endfacet
  facet normal 0.6234898018587334 0.7818314824680299 0
    outer loop
      vertex -0.44504186791262795 -1.9498558243636475 2.01
      vertex -1.801937735804838 -0.8677674782351165 3.01
      vertex -0.44504186791262795 -1.9498558243636475 3.01
    endloop
  endfacet
  facet normal 1 0 0
    outer loop
      vertex -1.801937735804838 -0.8677674782351165 0
      vertex -1.801937735804838 0.8677674782351165 0
      vertex -1.801937735804838 0.8677674782351165 2
    endloop
  endfacet
  facet normal 0.6234898018587336 -0.7818314824680298 0
    outer loop
      vertex -1.801937735804838 0.8677674782351165 0
      vertex -0.44504186791262895 1.9498558243636472 0
      vertex -0.44504186791262895 1.9498558243636472 2
    endloop
  endfacet
  facet normal 0.6234898018587336 -0.7818314824680298 0
    outer loop
      vertex -0.44504186791262895 1.9498558243636472 2
      vertex -1.801937735804838 0.8677674782351165 2
      vertex -1.801937735804838 0.8677674782351165 0
    endloop
  endfacet
  facet normal -0.22252093395631456 0.9749279121818236 0
    outer loop
      vertex -0.44504186791262795 -1.9498558243636475 2
      vertex 1.2469796037174667 -1.5636629649360598 0
      vertex -0.44504186791262795 -1.9498558243636475 0
    endloop
  endfacet
  facet normal -0.900968867902419 0.4338837391175582 0
    outer loop
      vertex 2 0 0
      vertex 1.2469796037174667 -1.5636629649360598 0
      vertex 1.2469796037174667 -1.5636629649360598 2
    endloop
  endfacet
  facet normal -0.22252093395631456 0.9749279121818236 0
    outer loop
      vertex -0.44504186791262795 -1.9498558243636475 2
      vertex 1.2469796037174667 -1.5636629649360598 2
      vertex 1.2469796037174667 -1.5636629649360598 0
    endloop
  endfacet
  facet normal -0.900968867902419 0.4338837391175582 0
    outer loop
      vertex 1.2469796037174667 -1.5636629649360598 2
      vertex 2 0 2
      vertex 2 0 0
    endloop
  endfacet
  facet normal -0.22252093395631442 -0.9749279121818236 0
    outer loop
      vertex -0.44504186791262895 1.9498558243636472 0
      vertex 1.246979603717467 1.5636629649360596 0
      vertex 1.246979603717467 1.5636629649360596 2
    endloop
  endfacet
  facet normal -0.9009688679024191 -0.4338837391175582 0
    outer loop
      vertex 1.246979603717467 1.5636629649360596 0
      vertex 2 0 0
      vertex 2 0 2
    endloop
  endfacet
  facet normal -0.22252093395631442 -0.9749279121818236 0
    outer loop
      vertex 1.246979603717467 1.5636629649360596 2
      vertex -0.44504186791262895 1.9498558243636472 2
      vertex -0.44504186791262895 1.9498558243636472 0
    endloop
  endfacet
  facet normal -0.9009688679024191 -0.4338837391175582 0
    outer loop
      vertex 1.246979603717467 1.5636629649360596 0
      vertex 2 0 2
      vertex 1.246979603717467 1.5636629649360596 2
    endloop
  endfacet
  facet normal -0.2225209339563144 -0.9749279121818236 0
    outer loop
      vertex 0 1.8482779221821866 2.01
      vertex 1.246979603717467 1.5636629649360596 2.01
      vertex 1.246979603717467 1.5636629649360596 3.01
    endloop
  endfacet
  facet normal -0.9009688679024191 -0.4338837391175582 0
    outer loop
      vertex 1.246979603717467 1.5636629649360596 2.01
      vertex 2 0 2.01
      vertex 2 0 3.01
    endloop
  endfacet
  facet normal -0.2225209339563144 -0.9749279121818236 0
    outer loop
      vertex 0 1.8482779221821866 3.01
      vertex 0 1.8482779221821866 2.01
      vertex 1.246979603717467 1.5636629649360596 3.01
    endloop
  endfacet
  facet normal -0.9009688679024191 -0.4338837391175582 0
    outer loop
      vertex 1.246979603717467 1.5636629649360596 2.01
      vertex 2 0 3.01
      vertex 1.246979603717467 1.5636629649360596 3.01
    endloop
  endfacet
endsolid OpenSCAD_Model
